# xmcd
#
# Track frame offsets: 
#        150
#        63100
#        110690
#        157383
#        221088
#        278260
#
# Disc length: 4583 seconds
#
# Revision: 3
# Processed by: cddbd v1.5.2PL0 Copyright (c) Steve Scherf et al.
# Submitted via: ExactAudioCopy v1.3
#
DISCID=5411e506
DTITLE=Smetana - Ma Vlast
DYEAR=1993
DGENRE=Classical
TTITLE0=Vysehrad, B110
TTITLE1=Vltava, B111
TTITLE2=Sarka, B113
TTITLE3=From Bohemia's Fields and Groves, B114
TTITLE4=Tabor, B120
TTITLE5=Blanik, B121
EXTD=YEAR: 1993
EXTT0=
EXTT1=
EXTT2=
EXTT3=
EXTT4=
EXTT5=
PLAYORDER=
